<svg viewBox="0 0 215 80" xmlns="http://www.w3.org/2000/svg" dir="ltr">
  <defs>
    <!-- Gradients -->
    <linearGradient id="emblemGrad" x1="0%" y1="0%" x2="100%" y2="100%">
      <stop offset="0%" stop-color="#009ee0" />     <!-- Brand Blue -->
      <stop offset="50%" stop-color="#7b2cbf" />    <!-- Purple -->
      <stop offset="100%" stop-color="#e22a7a" />   <!-- Brand Pink -->
    </linearGradient>
    
    <!-- Mask for the Gear to cut it open and have a clean center -->
    <mask id="gearMask">
      <!-- Keep everything white -->
      <rect x="0" y="0" width="80" height="80" fill="white" />
      <!-- Cut out center circle -->
      <circle cx="40" cy="40" r="16" fill="black" />
      <!-- Cut out right section to mimic open gear -->
      <!-- A pie wedge from -60 deg to 45 deg -->
      <path d="M 40,40 L 80,15 A 40,40 0 0,1 78,58 Z" fill="black" />
    </mask>
  </defs>

  <!-- EMBLEM -->
  <!-- Gear Group with Mask -->
  <g mask="url(#gearMask)">
    <!-- Outer teeth (overlapping rounded rectangles rotated) -->
    <rect x="35" y="8" width="10" height="64" rx="3" fill="url(#emblemGrad)" />
    <rect x="35" y="8" width="10" height="64" rx="3" fill="url(#emblemGrad)" transform="rotate(30 40 40)" />
    <rect x="35" y="8" width="10" height="64" rx="3" fill="url(#emblemGrad)" transform="rotate(60 40 40)" />
    <rect x="35" y="8" width="10" height="64" rx="3" fill="url(#emblemGrad)" transform="rotate(90 40 40)" />
    <rect x="35" y="8" width="10" height="64" rx="3" fill="url(#emblemGrad)" transform="rotate(120 40 40)" />
    <rect x="35" y="8" width="10" height="64" rx="3" fill="url(#emblemGrad)" transform="rotate(150 40 40)" />
    <!-- Main body ring -->
    <circle cx="40" cy="40" r="23" fill="url(#emblemGrad)" />
  </g>

  <!-- PCB Emblem (simplified) -->
  <circle cx="40" cy="40" r="15.5" fill="#0a1628" />
  <g>
    <path d="M 36,30 L 32,40 H 36 L 32,50" fill="none" stroke="#009ee0" stroke-width="2.8" stroke-linecap="round" stroke-linejoin="round" class="logo-stroke-adapt" />
    <rect x="42" y="35" width="8" height="8" rx="1" fill="none" stroke="#009ee0" stroke-width="1.8" class="logo-stroke-adapt" />
    <rect x="44" y="37" width="4" height="4" rx="0.5" fill="#009ee0" class="logo-text-adapt" opacity="0.6" />
    <line x1="40" y1="37" x2="42" y2="37" stroke="#009ee0" stroke-width="1.2" class="logo-stroke-adapt" />
    <line x1="40" y1="41" x2="42" y2="41" stroke="#009ee0" stroke-width="1.2" class="logo-stroke-adapt" />
    <line x1="50" y1="37" x2="52" y2="37" stroke="#009ee0" stroke-width="1.2" class="logo-stroke-adapt" />
    <line x1="50" y1="41" x2="52" y2="41" stroke="#009ee0" stroke-width="1.2" class="logo-stroke-adapt" />
    <path d="M 30,33 H 34" fill="none" stroke="#009ee0" stroke-width="1" stroke-linecap="round" class="logo-stroke-adapt" />
    <circle cx="29" cy="33" r="1.2" fill="#009ee0" class="logo-text-adapt" />
    <path d="M 30,47 H 34" fill="none" stroke="#009ee0" stroke-width="1" stroke-linecap="round" class="logo-stroke-adapt" />
    <circle cx="29" cy="47" r="1.2" fill="#009ee0" class="logo-text-adapt" />
    <path d="M 46,28 V 32" fill="none" stroke="#009ee0" stroke-width="1" stroke-linecap="round" class="logo-stroke-adapt" />
    <circle cx="46" cy="27" r="1.2" fill="#009ee0" class="logo-text-adapt" />
  </g>

  <!-- TEXT SECTION -->
  <!-- MUREX Text -->
  <text x="82" y="44" font-family="'Poppins', 'Inter', sans-serif" font-weight="700" font-size="30" fill="#009ee0" class="logo-text-adapt">MUREX</text>

  <!-- Data Line Wave over REX -->
  <path d="M 138,20 C 148,6 160,26 172,13 C 182,1 192,21 200,10" fill="none" stroke="#009ee0" stroke-width="2" stroke-linecap="round" class="logo-stroke-adapt" />
  <circle cx="138" cy="20" r="3" fill="#e22a7a" />
  <circle cx="152" cy="11" r="2.5" fill="#009ee0" />
  <circle cx="168" cy="17" r="2.5" fill="#e22a7a" />
  <circle cx="184" cy="7" r="3" fill="#009ee0" />
  <circle cx="200" cy="10" r="3.5" fill="#e22a7a" />

  <!-- ENGINEERING & CONSULTING Stacked Text -->
  <text x="82" y="59" font-family="'Inter', sans-serif" font-weight="700" font-size="9" letter-spacing="1.5" fill="#009ee0" class="logo-subtext-adapt">ENGINEERING</text>
  <text x="82" y="71" font-family="'Inter', sans-serif" font-weight="700" font-size="9" letter-spacing="1.5" fill="#009ee0" class="logo-subtext-adapt">CONSULTING</text>
</svg>
