<svg xmlns="http://www.w3.org/2000/svg" xmlns:xlink="http://www.w3.org/1999/xlink" id="a" x="0px" y="0px" viewBox="0 0 902.7 217.9" style="enable-background:new 0 0 902.7 217.9;" xml:space="preserve"><style type="text/css">	.st0{fill:none;}	.st1{fill:url(#SVGID_1_);}	.st2{fill:url(#SVGID_00000153694447366116857940000004161246908491872138_);}	.st3{fill:url(#SVGID_00000001656015420438500430000013763493247316997520_);}	.st4{fill:#043A74;}</style><path class="st0" d="M167.1,91.5l-38.3,38.3c-11.2,11.2-29.5,11.2-40.7,0s-11.2-29.5,0-40.7l38.3-38.3l-5.4-5.3l3.3-3.3 c-22-5.1-47.1,0.5-68,21.2c-5.4,5.3-11.4,15.7-13.3,23c-19.3,74,64.1,122,118.5,68.3c5.4-5.3,11.4-15.7,13.3-23 c3.6-13.7,3.6-26.5,1-38l-3.3,3.3L167.1,91.5L167.1,91.5z"></path><path class="st0" d="M93.4,124.5c8.3,8.3,21.8,8.3,30.1,0L157,91l-30.1-30.1L93.4,94.4C85.1,102.7,85.1,116.2,93.4,124.5z"></path><linearGradient id="SVGID_1_" gradientUnits="userSpaceOnUse" x1="142.565" y1="-1672.7988" x2="349.0211" y2="-1672.7988" gradientTransform="matrix(0.9857 0.1683 -0.1683 0.9857 -414.8612 1716.403)">	<stop offset="0" style="stop-color:#043A74"></stop>	<stop offset="1" style="stop-color:#0071BC"></stop></linearGradient><path class="st1" d="M191.7,182.6l25.7-96.2c1.2-4.4-0.1-9.1-3.3-12.3l-10.5-10.5c-1.6,3-3.6,5.8-6.1,8.3l-21.7,21.7 c2.6,11.5,2.6,24.3-1,38c-1.9,7.3-7.9,17.7-13.3,23C107.2,208.4,23.8,160.3,43,86.3c1.9-7.3,7.9-17.7,13.3-23 c20.9-20.7,46-26.3,68-21.2L146,20.4c2.5-2.5,5.3-4.5,8.2-6.1L143.6,3.7c-3.2-3.2-7.9-4.5-12.4-3.3L35.1,26.2c-4.4,1.2-7.9,4.6-9,9 L0.4,131.4c-1.2,4.4,0.1,9.1,3.3,12.3L74.2,214c3.2,3.2,7.9,4.5,12.4,3.3l96.1-25.8C187.1,190.5,190.6,187,191.7,182.6L191.7,182.6z "></path><linearGradient id="SVGID_00000147185798693452917010000004759826244580014228_" gradientUnits="userSpaceOnUse" x1="416.7749" y1="1696.3169" x2="485.3347" y2="1647.7467" gradientTransform="matrix(0.7071 0.7071 -0.7071 0.7071 987.5385 -1405.3367)">	<stop offset="0" style="stop-color:#043A74"></stop>	<stop offset="1" style="stop-color:#0071BC"></stop></linearGradient><path style="fill:url(#SVGID_00000147185798693452917010000004759826244580014228_);" d="M88.1,129.8c11.2,11.2,29.5,11.2,40.7,0 l38.3-38.3l-40.7-40.7L88.1,89.1C76.8,100.3,76.8,118.6,88.1,129.8z M157,91l-33.5,33.5c-8.3,8.3-21.8,8.3-30.1,0s-8.3-21.8,0-30.1 l33.5-33.5L157,91z"></path><linearGradient id="SVGID_00000056418788751057577410000010678514329404543650_" gradientUnits="userSpaceOnUse" x1="143.2273" y1="-710.9506" x2="200.7873" y2="-751.7305" gradientTransform="matrix(1 0 0 1 0 780)">	<stop offset="0" style="stop-color:#043A74"></stop>	<stop offset="1" style="stop-color:#0071BC"></stop></linearGradient><path style="fill:url(#SVGID_00000056418788751057577410000010678514329404543650_);" d="M192,25.9c-8.7-8.7-21.6-10.7-32.1-6 c-3.1,1.4-6,3.3-8.5,5.8l-18.8,18.8l-0.9,0.9l40.8,40.8l0.9-0.9l18.8-18.8c2.5-2.5,4.5-5.4,5.9-8.5C202.7,47.5,200.7,34.6,192,25.9 L192,25.9z"></path><g>	<g>		<g>			<path class="st4" d="M379.8,147.3l-4.9-57.8c-0.8-9-1.5-19.8-1.9-29.2h-0.4c-3.9,9.2-9.9,21.1-14.2,29.7l-28.8,58h-5.8l-29.2-58    c-4.3-8.4-9.5-19.8-13.8-29.4h-0.4c-0.4,9.7-1.1,20.8-1.9,28.8l-4.9,57.8H260l9.9-119.3h9.7L311.8,92c4.9,9.7,11,21.9,15.3,32    h0.4c4.1-10.1,9.7-21.7,15-32.2l32-64h9.7l10.1,119.3L379.8,147.3L379.8,147.3z"></path>			<path class="st4" d="M473.3,147.3v-11.8h-0.2c-3.2,7.7-11.4,13.8-26.7,13.8c-18.5,0-32.4-11.6-32.4-30.3V62.5h14.4v55.2    c0,10.3,6.9,19.1,21.5,19.1s22.2-8.8,22.2-19.1V62.5h14.4v84.7L473.3,147.3L473.3,147.3z"></path>			<path class="st4" d="M524.6,150.5c-6.2-1.7-15.7-7.5-15.7-22.4v-114h14.4v112c0,8,5.6,13.3,11.2,14.4L524.6,150.5z"></path>			<path class="st4" d="M599.7,73.8h-28.1v49.6c0,9.9,5.2,13.5,13.6,13.5c3.2,0,6.2-0.6,8.2-1.5l-1.3,11.2c-2.2,1.1-5.8,1.7-9.4,1.7    c-13.8,0-24.9-8.2-24.9-23.6V73.8H541V62.6h16.8v-18l13.6-7.1v25.1h30.7L599.7,73.8L599.7,73.8z"></path>			<path class="st4" d="M624.4,45.9c-3,0-9.2-6.4-9.2-9.3c0-3.2,6.2-9.2,9.2-9.2c3.2,0,9.4,6,9.4,9.2    C633.8,39.6,627.6,45.9,624.4,45.9z M617.1,147.3V62.6h14.6v84.7H617.1z"></path>		</g>		<g>			<polygon class="st4" points="711.8,105.8 726.8,108.5 726.8,148 756.6,148 756.6,102.2 711.8,102.2    "></polygon>			<path class="st4" d="M685.8,101.3c0-28,15.2-49.1,33.9-49.1c4.9,0,9.6,0.6,14.5,2.3l15.4,26h4.7v-29c-5.8-2.3-22.2-6.2-35.8-6.2    c-38.9,0-68.5,21.3-68.5,59.6c0,20.6,10,34.7,24.4,43.1h32.7C691.9,140.9,685.8,121.7,685.8,101.3L685.8,101.3z"></path>			<path class="st4" d="M812.5,68.2c-25,0-49.5,16.8-49.5,47.4c0,14.6,4.9,25.3,13.2,32.4h63.5c3.9-2.6,7.1-5.5,9.5-8.5l-1.9-2.3    c-8.3,3.4-17.1,5.3-25,5.3c-13,0-27.9-8.1-28.6-29.9h59.8C853.5,84.8,838.3,68.2,812.5,68.2L812.5,68.2z M793.7,106.2    c0.8-19,5.5-30.9,15.4-30.9c9.4,0,13.4,15.4,13.6,29L793.7,106.2z"></path>			<polygon class="st4" points="867.6,30.6 860,32.8 860,37 874.1,37 874.1,148 902.7,148 902.7,30.6    "></polygon>		</g>	</g>	<g>		<path class="st4" d="M264.5,177.7v10.2h14.7v3.6h-14.7v11.9h-4.2V174h20.8v3.7H264.5z"></path>		<path class="st4" d="M295,174h4.2v29.4H295V174z"></path>		<path class="st4" d="M335.7,203.4l-6.3-9c-0.8,0.1-1.4,0.1-1.9,0.1h-7.3v9H316v-29.4h11.5c3.8,0,6.8,0.9,9,2.7s3.3,4.3,3.3,7.5   c0,2.3-0.6,4.2-1.7,5.8c-1.1,1.6-2.7,2.8-4.8,3.5l7,9.9L335.7,203.4L335.7,203.4z M333.4,189.2c1.4-1.2,2.1-2.8,2.1-4.9   s-0.7-3.8-2.1-4.9s-3.4-1.7-6.1-1.7h-7.1v13.2h7.1C330,190.9,332,190.3,333.4,189.2L333.4,189.2z"></path>		<path class="st4" d="M375.8,199.8v3.7h-21.3v-29.4h20.8v3.7h-16.6v9h14.7v3.6h-14.7v9.5L375.8,199.8L375.8,199.8z"></path>		<path class="st4" d="M415.9,174v29.4h-3.4l-17.6-21.9v21.9h-4.2V174h3.4l17.6,21.9V174H415.9z"></path>		<path class="st4" d="M454.7,199.8v3.7h-24.6v-2.9l18.5-22.9h-18.2V174h23.7v2.9l-18.4,22.9H454.7L454.7,199.8z"></path>		<path class="st4" d="M489.6,199.8v3.7h-21.3v-29.4h20.8v3.7h-16.6v9h14.7v3.6h-14.7v9.5L489.6,199.8L489.6,199.8z"></path>		<path class="st4" d="M530.4,174v29.4h-4.2v-25.7h-6.6V174H530.4L530.4,174z"></path>		<path class="st4" d="M563.5,177.5c2.1,2.5,3.2,6.2,3.2,10.8c0,3.3-0.6,6.1-1.7,8.4s-2.8,4.1-4.9,5.2c-2.1,1.2-4.5,1.8-7.3,1.8   c-1.4,0-2.8-0.2-4-0.4s-2.4-0.7-3.3-1.3l1.6-3.3c1.4,0.9,3.3,1.4,5.7,1.4c3.1,0,5.4-0.9,7.2-2.8s2.6-4.6,2.6-8.2v-1   c-0.8,1.3-2,2.2-3.5,2.9s-3.1,1-5,1s-3.7-0.4-5.2-1.1c-1.5-0.7-2.7-1.8-3.6-3.1s-1.3-2.9-1.3-4.7s0.5-3.5,1.4-4.9s2.1-2.5,3.7-3.2   s3.3-1.2,5.3-1.2C558.3,173.7,561.3,175,563.5,177.5L563.5,177.5z M558.2,187.7c1-0.5,1.8-1.2,2.4-2.1c0.6-0.9,0.9-1.8,0.9-2.9   s-0.3-2-0.8-2.8c-0.6-0.8-1.3-1.5-2.4-2.1c-1.1-0.5-2.3-0.8-3.8-0.8c-1.9,0-3.5,0.5-4.7,1.5s-1.8,2.4-1.8,4.2s0.6,3.1,1.8,4.1   s2.8,1.5,4.9,1.5C556,188.5,557.2,188.2,558.2,187.7L558.2,187.7z"></path>		<path class="st4" d="M596.1,189c1.5,1.5,2.3,3.4,2.3,5.7c0,1.7-0.4,3.2-1.3,4.6s-2.1,2.4-3.8,3.2s-3.7,1.2-6.1,1.2   c-2.1,0-4.1-0.3-6.1-1c-1.9-0.6-3.5-1.5-4.8-2.6l1.9-3.3c1,1,2.3,1.7,3.9,2.3s3.2,0.9,5,0.9c2.2,0,3.9-0.5,5.1-1.4   c1.2-0.9,1.8-2.2,1.8-3.8s-0.6-2.9-1.8-3.8s-3-1.3-5.5-1.3h-2.4v-3l7.4-9.1h-14.1v-3.7H597v2.9l-7.7,9.5   C592.4,186.7,594.6,187.5,596.1,189L596.1,189z"></path>		<path class="st4" d="M628.1,186.7c1.5,0.7,2.7,1.8,3.6,3.1s1.3,2.9,1.3,4.7s-0.5,3.5-1.4,4.9s-2.2,2.5-3.7,3.2   c-1.6,0.8-3.4,1.2-5.3,1.2c-3.9,0-7-1.3-9.1-3.8s-3.2-6.2-3.2-10.8c0-3.3,0.6-6.1,1.7-8.4s2.8-4.1,4.9-5.2   c2.1-1.2,4.5-1.8,7.3-1.8c1.4,0,2.8,0.2,4,0.4s2.4,0.7,3.3,1.3l-1.6,3.3c-1.4-0.9-3.3-1.4-5.6-1.4c-3.1,0-5.4,1-7.2,2.8   c-1.7,1.9-2.6,4.6-2.6,8.2c0,0.5,0,0.8,0,1c0.8-1.3,2-2.2,3.5-2.9s3.1-1,5-1S626.6,185.9,628.1,186.7L628.1,186.7z M627.2,198.8   c1.2-1,1.8-2.4,1.8-4.2s-0.6-3.1-1.8-4.1s-2.9-1.5-4.9-1.5c-1.3,0-2.5,0.2-3.5,0.8c-1,0.5-1.8,1.2-2.4,2.1   c-0.6,0.9-0.9,1.8-0.9,2.9s0.3,2,0.8,2.8c0.6,0.8,1.3,1.5,2.4,2.1c1.1,0.5,2.3,0.8,3.8,0.8C624.4,200.4,626,199.9,627.2,198.8   L627.2,198.8z"></path>	</g></g></svg>