<svg height="80" viewBox="0 0 120 80" width="120" xmlns="http://www.w3.org/2000/svg"><g fill="none" fill-rule="evenodd"><path d="m119.25 34.4897007-4.562461-.0019641c-8.015458 23.9444158-30.924457 41.2275662-57.915448 41.2275662v4.2846972c29.4182563 0 54.307943-19.1627998 62.477909-45.5102993zm-46.5845545-18.8230095c0-2.6947534-.6907987-5.2313962-1.9079202-7.44592569h-2.4561732v-3.33505193c-2.897766-3.00901033-6.9957076-4.88571358-11.5392293-4.88571358-8.7820154 0-15.9023259 7.01480445-15.9023259 15.6666912 0 8.6538509 7.1203105 15.6676733 15.9023259 15.6676733 8.784009 0 15.9033227-7.0138224 15.9033227-15.6676733zm-68.30633616 0c0-5.1292627.75359859-10.10532516 2.16709437-14.78284352h-4.52557887c-1.30982613 4.71581842-2.00062484 9.65750902-2.00062484 14.78284352z" fill="#e22a7a"/><path d="m120 29.9393017-11.707921-29.93830136h-10.9964614l-11.7089107 29.93830136h8.8155739l1.8751277-5.1547737h13.0318895l1.876118 5.1547737zm-13.168443-11.9811225h-8.0754178l4.0382038-11.12982966zm-21.3042209-10.48460765h8.8353641v-7.47357155h-26.1182032v7.47357155h8.8363537v22.46472985h8.4464854zm-45.5176112 22.46573015-8.6414195-9.2251743c4.4310405-.7302512 8.2871737-4.7766435 8.2871737-9.8954048 0-5.79299332-4.9356922-10.81772226-10.4710296-10.81772226h-17.5569342v29.93830136h8.1189565v-9.4852638l8.8195319 9.4852638zm-13.1506316-16.0365179h-7.1126215v-6.4282119h7.1126215c2.7063188 0 4.5705619.74625677 4.5705619 3.3441507 0 2.336804-1.8642431 3.0840612-4.5705619 3.0840612zm83.0162067 20.3349969-106.1253.0050018c6.04097862 17.0748752 19.9169234 30.3814538 37.2502277 35.4932127l.0197903-13.682708c0-8.8150332 7.0562192-15.9594915 15.7738313-15.9594915 8.7195911 0 15.786695 7.1444583 15.786695 15.9594915l-.0128637 13.6967128c17.3590316-5.1037561 31.2616934-18.4203382 37.3076194-35.5122193z" fill="#009ee0"/></g></svg>